#!OML:ASF F:\VICON\USERDATA\INSTALL\rory3\rory3.ASF
:FULLY-SPECIFIED
:DEGREES
333
root 1.29597 18.0342 29.1668 -4.49239 -5.01501 0.84401
lowerback 8.66832 0.900703 -0.516498
upperback 0.890796 1.17788 0.725005
thorax -3.96203 0.596935 0.901128
lowerneck -15.8378 -2.31255 -1.52418
upperneck 18.7757 -2.93818 0.564012
head 8.49238 -1.43833 0.0922769
rclavicle -1.69402e-014 -8.74653e-015
rhumerus -32.6935 -14.2943 -79.8339
rradius 27.2957
rwrist 2.87378
rhand -13.5989 21.9519
rfingers 7.12502
rthumb 12.5159 -7.65326
lclavicle -1.69402e-014 -8.74653e-015
lhumerus -36.453 -0.766462 82.7806
lradius 28.8158
lwrist 2.88405
lhand -22.9152 29.2795
lfingers 7.12502
lthumb 3.52502 59.2301
rfemur -17.6862 -0.701286 20.8057
rtibia 75.8905
rfoot -0.278 -5.57539
rtoes -9.4018
lfemur -10.2636 -1.26039 -24.562
ltibia 27.1516
lfoot -12.3274 -2.15436
ltoes -13.9811
334
root 1.29422 18.0342 29.3121 -4.20606 -4.84993 0.717379
lowerback 8.51953 0.776475 -0.550055
upperback 0.872026 1.01344 0.809327
thorax -3.89715 0.516525 1.0288
lowerneck -16.135 -2.3333 -1.29573
upperneck 18.9431 -2.98046 0.371616
head 8.59602 -1.46061 -0.0198238
rclavicle 1.64619e-015 -1.27222e-014
rhumerus -32.7828 -14.1379 -79.9707
rradius 27.6675
rwrist 2.59929
rhand -13.5617 22.2984
rfingers 7.12502
rthumb 12.5517 -7.30454
lclavicle 1.64619e-015 -1.27222e-014
lhumerus -35.938 -0.810573 82.5417
lradius 29.3985
lwrist 1.50194
lhand -21.9554 31.7656
lfingers 7.12502
lthumb 4.45183 61.6988
rfemur -19.3527 -0.773805 21.1077
rtibia 75.8194
rfoot 0.131763 -5.52004
rtoes -6.16088
lfemur -10.1633 -1.20151 -24.505
ltibia 27.2589
lfoot -12.5302 -2.05919
ltoes -14.1293
335
root 1.29073 18.0305 29.4598 -4.04141 -4.66316 0.399851
lowerback 8.53921 0.673276 -0.389303
upperback 0.839833 0.897603 0.955814
thorax -3.93887 0.457845 1.1035
lowerneck -16.3229 -2.4446 -1.26228
upperneck 19.0765 -3.13515 0.340263
head 8.67543 -1.53327 -0.0581064
rclavicle -1.95057e-015 -1.23246e-014
rhumerus -32.9521 -13.911 -80.083
rradius 28.1819
rwrist 2.3403
rhand -13.4183 21.178
rfingers 7.12502
rthumb 12.6899 -8.41646
lclavicle -1.95057e-015 -1.23246e-014
lhumerus -35.6973 -1.21208 82.5136
lradius 29.9022
lwrist 1.8529
lhand -21.3901 30.849
lfingers 7.12502
lthumb 4.99768 60.7701
rfemur -20.7964 -0.798475 21.6435
rtibia 75.5616
rfoot -0.15258 -5.54443
rtoes -4.56339
lfemur -9.84668 -1.35281 -24.2535
ltibia 27.344
lfoot -12.7808 -1.73317
ltoes -14.089
336
root 1.29957 18.027 29.617 -4.10225 -4.20583 0.627811
lowerback 8.63263 0.506658 -0.55451
upperback 0.83942 0.658128 0.90414
thorax -3.98723 0.341638 1.17065
lowerneck -16.1332 -2.50571 -1.4189
upperneck 19.0338 -3.23004 0.558799
head 8.63427 -1.56697 0.0325515
rclavicle 5.13734e-015 -4.77083e-015
rhumerus -33.1296 -13.8404 -80.123
rradius 28.5136
rwrist 2.29515
rhand -13.1835 20.142
rfingers 7.12502
rthumb 12.9163 -9.4383
lclavicle 5.13734e-015 -4.77083e-015
lhumerus -35.5494 -2.20738 82.7195
lradius 30.373
lwrist 2.9927
lhand -21.1782 28.7743
lfingers 7.12502
lthumb 5.20234 58.6905
rfemur -21.8537 -1.21567 21.4112
rtibia 75.1508
rfoot -1.23913 -5.40303
rtoes -4.94787
lfemur -9.25731 -1.53669 -24.6763
ltibia 27.4286
lfoot -13.0894 -1.69416
ltoes -12.927
337
root 1.30951 18.0182 29.7742 -4.23049 -3.77326 1.08493
lowerback 8.7559 0.327457 -1.01259
upperback 0.844242 0.37227 0.835799
thorax -4.04638 0.207363 1.39162
lowerneck -15.7789 -2.4197 -1.46381
upperneck 18.9067 -3.11141 0.593196
head 8.52741 -1.51284 0.0712587
rclavicle -5.9946e-015 -1.59028e-015
rhumerus -33.2951 -13.4375 -80.2051
rradius 28.7851
rwrist 1.89591
rhand -13.0177 20.0458
rfingers 7.12502
rthumb 13.0761 -9.52429
lclavicle -5.9946e-015 -1.59028e-015
lhumerus -35.2073 -3.18502 83.0143
lradius 30.5071
lwrist 4.14788
lhand -22.5366 27.2761
lfingers 7.12502
lthumb 3.89059 57.2203
rfemur -22.8238 -1.6005 20.8715
rtibia 74.5939
rfoot -2.41739 -5.1489
rtoes -4.70859
lfemur -8.55525 -1.71223 -25.345
ltibia 27.4387
lfoot -13.3343 -1.7633
ltoes -11.4094
338
root 1.31233 18.0061 29.9376 -4.29343 -3.50023 1.18961
lowerback 8.66802 0.181871 -1.19174
upperback 0.974692 0.16427 0.892633
thorax -3.85571 0.105334 1.57644
lowerneck -15.8332 -2.37659 -1.52438
upperneck 18.9071 -3.03717 0.599892
head 8.53771 -1.48127 0.0916911
rclavicle -1.35795e-014 -6.75868e-015
rhumerus -33.395 -13.004 -80.3429
rradius 29.3591
rwrist 1.57634
rhand -12.93 19.2837
rfingers 7.12502
rthumb 13.1607 -10.2809
lclavicle -1.35795e-014 -6.75868e-015
lhumerus -34.7049 -3.74321 83.0888
lradius 30.8603
lwrist 4.62089
lhand -22.0858 27.9602
lfingers 7.12502
lthumb 4.32592 57.896
rfemur -23.7656 -1.77338 20.7916
rtibia 73.8441
rfoot -3.46801 -4.93068
rtoes -4.64859
lfemur -7.89361 -1.93419 -25.5919
ltibia 27.4593
lfoot -13.7591 -1.56144
ltoes -10.9443
339
root 1.31362 17.9932 30.0972 -4.25724 -3.14309 1.53805
lowerback 8.65513 0.0495142 -1.58883
upperback 1.02648 -0.0511116 0.847838
thorax -3.78655 0.00320692 1.77898
lowerneck -16.1625 -2.44775 -1.58767
upperneck 19.0392 -3.12745 0.653981
head 8.64499 -1.52075 0.10445
rclavicle -6.11263e-015 -1.59028e-015
rhumerus -33.5034 -12.6684 -80.4856
rradius 29.8798
rwrist 1.42673
rhand -13.04 18.5607
rfingers 7.12502
rthumb 13.0547 -11.0107
lclavicle -6.11263e-015 -1.59028e-015
lhumerus -34.3583 -4.08026 83.0111
lradius 31.4679
lwrist 4.59326
lhand -21.4103 28.7538
lfingers 7.12502
lthumb 4.97822 58.6754
rfemur -24.7172 -1.99902 20.4566
rtibia 72.9567
rfoot -4.63545 -4.79696
rtoes -6.51486
lfemur -7.43203 -2.03924 -26.116
ltibia 27.5911
lfoot -14.3343 -1.36457
ltoes -11.0536
340
root 1.31234 17.9769 30.2413 -4.08352 -2.94026 1.61
lowerback 8.76719 -0.0353915 -1.79505
upperback 0.926285 -0.182963 0.910098
thorax -3.9468 -0.0559624 1.9766
lowerneck -16.1902 -2.57143 -1.69657
upperneck 19.0687 -3.28981 0.740555
head 8.66556 -1.59567 0.131163
rclavicle 8.38623e-015 -3.18055e-015
rhumerus -33.6074 -12.3364 -80.5612
rradius 30.0586
rwrist 1.1209
rhand -13.1287 18.7665
rfingers 7.12502
rthumb 12.9691 -10.8104
lclavicle 8.38623e-015 -3.18055e-015
lhumerus -34.2253 -4.5234 83.007
lradius 32.1839
lwrist 4.67407
lhand -21.2629 29.5899
lfingers 7.12502
lthumb 5.12053 59.5081
rfemur -25.8633 -2.02762 20.4984
rtibia 71.8861
rfoot -5.57572 -4.78893
rtoes -8.06276
lfemur -7.25363 -2.17637 -26.2944
ltibia 27.8831
lfoot -14.7073 -1.08532
ltoes -11.2121
341
root 1.31027 17.9635 30.3923 -4.05027 -2.87381 1.5288
lowerback 8.89739 -0.127502 -1.89733
upperback 0.866335 -0.311441 1.05534
thorax -4.0745 -0.114787 2.20226
lowerneck -15.8279 -2.56395 -1.81437
upperneck 18.8337 -3.27286 0.829779
head 8.52403 -1.58935 0.188833
rclavicle -1.09332e-015 3.97569e-016
rhumerus -33.5927 -12.0911 -80.526
rradius 29.9706
rwrist 0.97763
rhand -13.0444 18.8497
rfingers 7.12502
rthumb 13.0504 -10.7221
lclavicle -1.09332e-015 3.97569e-016
lhumerus -34.0902 -4.64642 82.9321
lradius 32.6601
lwrist 4.84269
lhand -21.4462 29.4395
lfingers 7.12502
lthumb 4.94353 59.3618
rfemur -26.8107 -1.84961 20.6985
rtibia 70.5874
rfoot -6.48059 -4.89176
rtoes -8.3723
lfemur -6.91312 -2.25537 -26.2839
ltibia 28.2055
lfoot -15.2196 -0.843701
ltoes -11.175
342
root 1.31135 17.9477 30.5513 -4.1255 -2.69599 1.35924
lowerback 9.12315 -0.255121 -1.7831
upperback 0.865451 -0.469264 1.14461
thorax -4.19352 -0.192718 2.2526
lowerneck -15.5834 -2.50607 -1.68769
upperneck 18.6195 -3.2128 0.767016
head 8.40339 -1.56038 0.158613
rclavicle -7.11898e-015 -1.78906e-014
rhumerus -33.4835 -12.1751 -80.493
rradius 29.7956
rwrist 1.2279
rhand -13.0007 18.7371
rfingers 7.12502
rthumb 13.0925 -10.8319
lclavicle -7.11898e-015 -1.78906e-014
lhumerus -33.8597 -4.9598 82.8431
lradius 33.0305
lwrist 4.87374
lhand -21.9879 29.0566
lfingers 7.12502
lthumb 4.42046 58.9905
rfemur -27.3769 -1.84354 20.9688
rtibia 69.0388
rfoot -7.29392 -5.05921
rtoes -8.5323
lfemur -6.42855 -2.22891 -26.1895
ltibia 28.5202
lfoot -15.8334 -0.826842
ltoes -10.9348
343
root 1.30736 17.9288 30.6995 -4.12131 -2.43969 1.433
lowerback 9.27666 -0.335429 -1.94245
upperback 0.905074 -0.593277 1.17259
thorax -4.22966 -0.25103 2.38891
lowerneck -15.688 -2.54963 -1.67656
upperneck 18.6182 -3.26845 0.742377
head 8.42177 -1.58785 0.1406
rclavicle -1.4797e-014 1.27222e-014
rhumerus -33.3981 -12.2258 -80.4743
rradius 29.7955
rwrist 1.33029
rhand -12.9942 19.4174
rfingers 7.12502
rthumb 13.0987 -10.1513
lclavicle -1.4797e-014 1.27222e-014
lhumerus -33.5532 -5.33674 82.7457
lradius 33.6013
lwrist 4.25991
lhand -22.0715 29.3723
lfingers 7.12502
lthumb 4.33969 59.3078
rfemur -28.0572 -1.90261 20.9627
rtibia 67.3709
rfoot -7.99687 -5.18005
rtoes -8.83498
lfemur -6.01324 -2.27673 -26.331
ltibia 28.731
lfoot -16.2862 -0.795562
ltoes -10.3371
344
root 1.30824 17.9156 30.85 -3.961 -2.2648 1.6055
lowerback 9.06434 -0.415603 -2.14251
upperback 1.00839 -0.716346 1.17275
thorax -3.9942 -0.313163 2.51311
lowerneck -15.7139 -2.62468 -1.75332
upperneck 18.4094 -3.36886 0.834137
head 8.36042 -1.6314 0.173055
rclavicle -2.93207e-015 6.36111e-015
rhumerus -33.3814 -11.6981 -80.708
rradius 30.2668
rwrist 0.710339
rhand -13.3265 19.512
rfingers 7.12502
rthumb 12.7784 -10.0769
lclavicle -2.93207e-015 6.36111e-015
lhumerus -33.113 -5.57317 82.5958
lradius 34.1991
lwrist 4.00099
lhand -22.1021 29.179
lfingers 7.12502
lthumb 4.31013 59.1151
rfemur -28.917 -1.80593 20.7994
rtibia 65.5609
rfoot -8.66343 -5.37054
rtoes -9.13324
lfemur -5.66075 -2.38767 -26.6291
ltibia 28.8131
lfoot -16.683 -0.511103
ltoes -10.7861
345
root 1.3058 17.903 30.9988 -3.7782 -2.32772 1.76884
lowerback 8.94179 -0.436302 -2.42547
upperback 1.07931 -0.767343 1.21765
thorax -3.84466 -0.336996 2.72309
lowerneck -15.8274 -2.64246 -1.9249
upperneck 18.2614 -3.38768 1.03042
head 8.33803 -1.63156 0.264061
rclavicle -1.83876e-015 2.06736e-014
rhumerus -33.2276 -11.2707 -80.8375
rradius 30.5742
rwrist 0.597427
rhand -13.1087 18.562
rfingers 7.12502
rthumb 12.9884 -11.0137
lclavicle -1.83876e-015 2.06736e-014
lhumerus -32.628 -5.66191 82.4689
lradius 34.5636
lwrist 3.99433
lhand -22.3223 28.7029
lfingers 7.12502
lthumb 4.09756 58.6432
rfemur -29.7572 -1.5553 20.7056
rtibia 63.6037
rfoot -9.41038 -5.73211
rtoes -11.5697
lfemur -5.22991 -2.39132 -26.8976
ltibia 28.6333
lfoot -16.9825 -0.0802895
ltoes -11.816
346
root 1.29859 17.8838 31.1531 -3.74517 -2.3898 2.22854
lowerback 9.1357 -0.399387 -3.04555
upperback 0.996568 -0.788089 1.14561
thorax -4.03041 -0.333705 3.00506
lowerneck -16.3673 -2.70375 -1.87129
upperneck 18.8645 -3.48186 1.01381
head 8.63912 -1.66911 0.227425
rclavicle 3.47873e-016 2.38542e-015
rhumerus -33.11 -11.3205 -80.7978
rradius 30.2643
rwrist 1.02368
rhand -12.9691 18.4754
rfingers 7.12502
rthumb 13.123 -11.0917
lclavicle 3.47873e-016 2.38542e-015
lhumerus -32.4841 -5.97429 82.3462
lradius 34.9382
lwrist 4.19804
lhand -22.6051 28.3254
lfingers 7.12502
lthumb 3.82449 58.2709
rfemur -30.3373 -1.42147 20.2944
rtibia 61.4497
rfoot -9.92371 -6.14765
rtoes -14.5914
lfemur -4.56485 -2.45982 -27.4888
ltibia 28.3228
lfoot -17.3739 0.205364
ltoes -11.8267
